<mxfile host="Electron" agent="Mozilla/5.0 (Windows NT 10.0; Win64; x64) AppleWebKit/537.36 (KHTML, like Gecko) draw.io/26.2.15 Chrome/134.0.6998.205 Electron/35.2.1 Safari/537.36" version="26.2.15" pages="3">
  <diagram name="Top New Features That I can Explore" id="H-lTtJw_paa2dJG2KekU">
    <mxGraphModel dx="879" dy="555" grid="1" gridSize="10" guides="1" tooltips="1" connect="1" arrows="1" fold="1" page="1" pageScale="1" pageWidth="850" pageHeight="1100" math="0" shadow="0">
      <root>
        <mxCell id="0" />
        <mxCell id="1" parent="0" />
        <mxCell id="dxzc5Opw5BWFp04rEgw8-1" value="Overview Of New Features" style="rounded=0;whiteSpace=wrap;html=1;" vertex="1" parent="1">
          <mxGeometry x="470" y="160" width="150" height="60" as="geometry" />
        </mxCell>
        <mxCell id="dxzc5Opw5BWFp04rEgw8-2" value="Java8&amp;nbsp;" style="rounded=0;whiteSpace=wrap;html=1;" vertex="1" parent="1">
          <mxGeometry x="420" y="50" width="120" height="60" as="geometry" />
        </mxCell>
        <mxCell id="dxzc5Opw5BWFp04rEgw8-3" value="Java 17" style="rounded=0;whiteSpace=wrap;html=1;" vertex="1" parent="1">
          <mxGeometry x="660" y="50" width="120" height="60" as="geometry" />
        </mxCell>
        <mxCell id="dxzc5Opw5BWFp04rEgw8-4" value="The diamond operator &amp;lt;&amp;gt;" style="ellipse;whiteSpace=wrap;html=1;aspect=fixed;fillColor=#a0522d;fontColor=#ffffff;strokeColor=#6D1F00;" vertex="1" parent="1">
          <mxGeometry x="70" y="290" width="80" height="80" as="geometry" />
        </mxCell>
        <mxCell id="dxzc5Opw5BWFp04rEgw8-5" value="Stream API enhancements" style="ellipse;whiteSpace=wrap;html=1;aspect=fixed;fillColor=#0050ef;fontColor=#ffffff;strokeColor=#001DBC;" vertex="1" parent="1">
          <mxGeometry x="180" y="280" width="100" height="100" as="geometry" />
        </mxCell>
        <mxCell id="dxzc5Opw5BWFp04rEgw8-6" value="Roadmap" style="rhombus;whiteSpace=wrap;html=1;" vertex="1" parent="1">
          <mxGeometry x="560" y="40" width="80" height="80" as="geometry" />
        </mxCell>
        <mxCell id="dxzc5Opw5BWFp04rEgw8-7" value="Collection Factory Methods" style="ellipse;whiteSpace=wrap;html=1;aspect=fixed;fillColor=#0050ef;fontColor=#ffffff;strokeColor=#001DBC;" vertex="1" parent="1">
          <mxGeometry x="330" y="290" width="80" height="80" as="geometry" />
        </mxCell>
        <mxCell id="dxzc5Opw5BWFp04rEgw8-8" value="Private Methods in Interfaces" style="ellipse;whiteSpace=wrap;html=1;aspect=fixed;fillColor=#0050ef;fontColor=#ffffff;strokeColor=#001DBC;" vertex="1" parent="1">
          <mxGeometry x="460" y="290" width="80" height="80" as="geometry" />
        </mxCell>
        <mxCell id="dxzc5Opw5BWFp04rEgw8-9" value="Walking through the CallStack" style="ellipse;whiteSpace=wrap;html=1;aspect=fixed;fillColor=#0050ef;fontColor=#ffffff;strokeColor=#001DBC;" vertex="1" parent="1">
          <mxGeometry x="810" y="280" width="80" height="80" as="geometry" />
        </mxCell>
        <mxCell id="dxzc5Opw5BWFp04rEgw8-10" value="CompactStrings" style="ellipse;whiteSpace=wrap;html=1;aspect=fixed;fillColor=#a20025;fontColor=#ffffff;strokeColor=#6F0000;" vertex="1" parent="1">
          <mxGeometry x="410" y="545" width="90" height="90" as="geometry" />
        </mxCell>
        <mxCell id="dxzc5Opw5BWFp04rEgw8-11" value="SwitchExpressions" style="ellipse;whiteSpace=wrap;html=1;aspect=fixed;fillColor=#a20025;fontColor=#ffffff;strokeColor=#6F0000;" vertex="1" parent="1">
          <mxGeometry x="530" y="540" width="105" height="105" as="geometry" />
        </mxCell>
        <mxCell id="dxzc5Opw5BWFp04rEgw8-12" value="Compact Number Formatting&lt;div&gt;&lt;br&gt;&lt;/div&gt;" style="ellipse;whiteSpace=wrap;html=1;aspect=fixed;fillColor=#e51400;fontColor=#ffffff;strokeColor=#B20000;" vertex="1" parent="1">
          <mxGeometry x="740" y="535" width="115" height="115" as="geometry" />
        </mxCell>
        <mxCell id="dxzc5Opw5BWFp04rEgw8-13" value="&lt;div&gt;TextBlocks&lt;/div&gt;&lt;div&gt;&lt;br&gt;&lt;/div&gt;" style="ellipse;whiteSpace=wrap;html=1;aspect=fixed;fillColor=#a20025;fontColor=#ffffff;strokeColor=#6F0000;" vertex="1" parent="1">
          <mxGeometry x="410" y="640" width="100" height="100" as="geometry" />
        </mxCell>
        <mxCell id="dxzc5Opw5BWFp04rEgw8-14" value="&lt;div&gt;Records&lt;/div&gt;&lt;div&gt;&lt;br&gt;&lt;/div&gt;" style="ellipse;whiteSpace=wrap;html=1;aspect=fixed;fillColor=#a20025;fontColor=#ffffff;strokeColor=#6F0000;" vertex="1" parent="1">
          <mxGeometry x="540" y="660" width="100" height="100" as="geometry" />
        </mxCell>
        <mxCell id="dxzc5Opw5BWFp04rEgw8-15" value="&lt;div&gt;Sealed Classes&lt;/div&gt;" style="ellipse;whiteSpace=wrap;html=1;aspect=fixed;fillColor=#e51400;fontColor=#ffffff;strokeColor=#B20000;" vertex="1" parent="1">
          <mxGeometry x="747.5" y="670" width="100" height="100" as="geometry" />
        </mxCell>
        <mxCell id="dxzc5Opw5BWFp04rEgw8-16" value="&lt;div&gt;JPMS&lt;/div&gt;" style="ellipse;whiteSpace=wrap;html=1;aspect=fixed;fillColor=#d80073;fontColor=#ffffff;strokeColor=#A50040;" vertex="1" parent="1">
          <mxGeometry x="60" y="535" width="260" height="260" as="geometry" />
        </mxCell>
        <mxCell id="dxzc5Opw5BWFp04rEgw8-17" value="Generics with Diamond Operators" style="ellipse;whiteSpace=wrap;html=1;aspect=fixed;fillColor=#0050ef;fontColor=#ffffff;strokeColor=#001DBC;" vertex="1" parent="1">
          <mxGeometry x="70" y="385" width="80" height="80" as="geometry" />
        </mxCell>
        <mxCell id="dxzc5Opw5BWFp04rEgw8-18" value="Effectively work with streams with new methods/ functionality" style="ellipse;whiteSpace=wrap;html=1;aspect=fixed;fillColor=#0050ef;fontColor=#ffffff;strokeColor=#001DBC;" vertex="1" parent="1">
          <mxGeometry x="180" y="395" width="100" height="100" as="geometry" />
        </mxCell>
        <mxCell id="dxzc5Opw5BWFp04rEgw8-19" value="Makes working with Collections way easier" style="ellipse;whiteSpace=wrap;html=1;aspect=fixed;fillColor=#0050ef;fontColor=#ffffff;strokeColor=#001DBC;" vertex="1" parent="1">
          <mxGeometry x="330" y="380" width="105" height="105" as="geometry" />
        </mxCell>
        <mxCell id="dxzc5Opw5BWFp04rEgw8-20" value="abstract methods" style="ellipse;whiteSpace=wrap;html=1;aspect=fixed;fillColor=#0050ef;fontColor=#ffffff;strokeColor=#001DBC;" vertex="1" parent="1">
          <mxGeometry x="470" y="385" width="80" height="80" as="geometry" />
        </mxCell>
        <mxCell id="dxzc5Opw5BWFp04rEgw8-21" value="&amp;nbsp;methods with body (static / default methods)" style="ellipse;whiteSpace=wrap;html=1;aspect=fixed;fillColor=#0050ef;fontColor=#ffffff;strokeColor=#001DBC;" vertex="1" parent="1">
          <mxGeometry x="570" y="385" width="80" height="80" as="geometry" />
        </mxCell>
        <mxCell id="dxzc5Opw5BWFp04rEgw8-22" value="private methods" style="ellipse;whiteSpace=wrap;html=1;aspect=fixed;fillColor=#0050ef;fontColor=#ffffff;strokeColor=#001DBC;" vertex="1" parent="1">
          <mxGeometry x="660" y="380" width="80" height="80" as="geometry" />
        </mxCell>
        <mxCell id="dxzc5Opw5BWFp04rEgw8-23" value="The API to walk through the call stack is highly effective" style="ellipse;whiteSpace=wrap;html=1;aspect=fixed;fillColor=#0050ef;fontColor=#ffffff;strokeColor=#001DBC;" vertex="1" parent="1">
          <mxGeometry x="810" y="380" width="120" height="120" as="geometry" />
        </mxCell>
        <mxCell id="dxzc5Opw5BWFp04rEgw8-24" value="RoadMap / Idea" style="rounded=0;whiteSpace=wrap;html=1;" vertex="1" parent="1">
          <mxGeometry x="70" y="50" width="120" height="60" as="geometry" />
        </mxCell>
        <mxCell id="dxzc5Opw5BWFp04rEgw8-25" value="Concept" style="ellipse;whiteSpace=wrap;html=1;aspect=fixed;fillColor=#d80073;fontColor=#ffffff;strokeColor=#A50040;" vertex="1" parent="1">
          <mxGeometry x="280" y="890" width="80" height="80" as="geometry" />
        </mxCell>
        <mxCell id="dxzc5Opw5BWFp04rEgw8-26" value="Apply" style="ellipse;whiteSpace=wrap;html=1;aspect=fixed;fillColor=#a20025;fontColor=#ffffff;strokeColor=#6F0000;" vertex="1" parent="1">
          <mxGeometry x="210" y="1000" width="80" height="80" as="geometry" />
        </mxCell>
        <mxCell id="dxzc5Opw5BWFp04rEgw8-27" value="Review /Refactor" style="ellipse;whiteSpace=wrap;html=1;aspect=fixed;fillColor=#a20025;strokeColor=#6F0000;fontColor=#ffffff;" vertex="1" parent="1">
          <mxGeometry x="340" y="1000" width="80" height="80" as="geometry" />
        </mxCell>
        <mxCell id="dxzc5Opw5BWFp04rEgw8-32" value="The Diamond operator&amp;nbsp;&lt;div&gt;can be used with&lt;/div&gt;&lt;div&gt;anonymous inner classes from Java 9+&lt;/div&gt;" style="rounded=0;whiteSpace=wrap;html=1;" vertex="1" parent="1">
          <mxGeometry x="15" y="150" width="190" height="110" as="geometry" />
        </mxCell>
      </root>
    </mxGraphModel>
  </diagram>
  <diagram id="it7jR1w6A2HO88eLoIti" name="Terminology">
    <mxGraphModel dx="1636" dy="562" grid="1" gridSize="10" guides="1" tooltips="1" connect="1" arrows="1" fold="1" page="1" pageScale="1" pageWidth="850" pageHeight="1100" math="0" shadow="0">
      <root>
        <mxCell id="0" />
        <mxCell id="1" parent="0" />
        <mxCell id="AD6r4I_cpZdrooL8gMmH-1" value="JEP / JDK Enhancement Proposal" style="rounded=0;whiteSpace=wrap;html=1;" parent="1" vertex="1">
          <mxGeometry x="150" y="80" width="120" height="60" as="geometry" />
        </mxCell>
        <mxCell id="AD6r4I_cpZdrooL8gMmH-4" value="" style="edgeStyle=orthogonalEdgeStyle;rounded=0;orthogonalLoop=1;jettySize=auto;html=1;" parent="1" source="AD6r4I_cpZdrooL8gMmH-2" target="AD6r4I_cpZdrooL8gMmH-3" edge="1">
          <mxGeometry relative="1" as="geometry" />
        </mxCell>
        <mxCell id="AD6r4I_cpZdrooL8gMmH-2" value="Process" style="rounded=0;whiteSpace=wrap;html=1;" parent="1" vertex="1">
          <mxGeometry x="160" y="180" width="120" height="60" as="geometry" />
        </mxCell>
        <mxCell id="AD6r4I_cpZdrooL8gMmH-3" value="Java Community" style="rounded=0;whiteSpace=wrap;html=1;" parent="1" vertex="1">
          <mxGeometry x="160" y="320" width="120" height="60" as="geometry" />
        </mxCell>
        <mxCell id="AD6r4I_cpZdrooL8gMmH-7" value="" style="edgeStyle=orthogonalEdgeStyle;rounded=0;orthogonalLoop=1;jettySize=auto;html=1;" parent="1" source="AD6r4I_cpZdrooL8gMmH-5" target="AD6r4I_cpZdrooL8gMmH-6" edge="1">
          <mxGeometry relative="1" as="geometry" />
        </mxCell>
        <mxCell id="AD6r4I_cpZdrooL8gMmH-5" value="Purpose" style="rounded=0;whiteSpace=wrap;html=1;" parent="1" vertex="1">
          <mxGeometry x="340" y="180" width="120" height="60" as="geometry" />
        </mxCell>
        <mxCell id="AD6r4I_cpZdrooL8gMmH-9" value="" style="edgeStyle=orthogonalEdgeStyle;rounded=0;orthogonalLoop=1;jettySize=auto;html=1;" parent="1" source="AD6r4I_cpZdrooL8gMmH-6" target="AD6r4I_cpZdrooL8gMmH-8" edge="1">
          <mxGeometry relative="1" as="geometry" />
        </mxCell>
        <mxCell id="AD6r4I_cpZdrooL8gMmH-6" value="Propose" style="ellipse;whiteSpace=wrap;html=1;rounded=0;" parent="1" vertex="1">
          <mxGeometry x="360" y="310" width="80" height="80" as="geometry" />
        </mxCell>
        <mxCell id="AD6r4I_cpZdrooL8gMmH-11" value="" style="edgeStyle=orthogonalEdgeStyle;rounded=0;orthogonalLoop=1;jettySize=auto;html=1;" parent="1" source="AD6r4I_cpZdrooL8gMmH-8" target="AD6r4I_cpZdrooL8gMmH-10" edge="1">
          <mxGeometry relative="1" as="geometry" />
        </mxCell>
        <mxCell id="AD6r4I_cpZdrooL8gMmH-8" value="Discuss" style="ellipse;whiteSpace=wrap;html=1;rounded=0;" parent="1" vertex="1">
          <mxGeometry x="520" y="310" width="80" height="80" as="geometry" />
        </mxCell>
        <mxCell id="AD6r4I_cpZdrooL8gMmH-10" value="document signficant changes." style="ellipse;whiteSpace=wrap;html=1;rounded=0;" parent="1" vertex="1">
          <mxGeometry x="680" y="310" width="80" height="80" as="geometry" />
        </mxCell>
        <mxCell id="AD6r4I_cpZdrooL8gMmH-12" value="Process" style="rounded=0;whiteSpace=wrap;html=1;fillColor=#6d8764;fontColor=#ffffff;strokeColor=#3A5431;" parent="1" vertex="1">
          <mxGeometry x="-10" y="470" width="120" height="60" as="geometry" />
        </mxCell>
        <mxCell id="AD6r4I_cpZdrooL8gMmH-13" value="Practice" style="rounded=0;whiteSpace=wrap;html=1;" parent="1" vertex="1">
          <mxGeometry x="110" y="470" width="120" height="60" as="geometry" />
        </mxCell>
        <mxCell id="8vsUmJd-rWdS67Mih5kZ-1" value="Methodology" style="rounded=0;whiteSpace=wrap;html=1;fillColor=#6d8764;fontColor=#ffffff;strokeColor=#3A5431;" parent="1" vertex="1">
          <mxGeometry x="230" y="470" width="120" height="60" as="geometry" />
        </mxCell>
        <mxCell id="8vsUmJd-rWdS67Mih5kZ-2" value="Break and Make" style="rounded=0;whiteSpace=wrap;html=1;fillColor=#008a00;fontColor=#ffffff;strokeColor=#005700;" parent="1" vertex="1">
          <mxGeometry x="230" y="530" width="120" height="60" as="geometry" />
        </mxCell>
        <mxCell id="8vsUmJd-rWdS67Mih5kZ-5" value="Context" style="rounded=0;whiteSpace=wrap;html=1;fillColor=#6d8764;fontColor=#ffffff;strokeColor=#3A5431;" parent="1" vertex="1">
          <mxGeometry x="230" y="410" width="120" height="60" as="geometry" />
        </mxCell>
        <mxCell id="VedadEQwNp0A-uT3c_Re-1" value="Terminology" style="rounded=0;whiteSpace=wrap;html=1;fillColor=#008a00;fontColor=#ffffff;strokeColor=#005700;" vertex="1" parent="1">
          <mxGeometry x="-10" y="530" width="120" height="60" as="geometry" />
        </mxCell>
        <mxCell id="6cJSSmzFoF7t9B8q87Jw-1" value="Principles" style="rounded=0;whiteSpace=wrap;html=1;fillColor=#6d8764;fontColor=#ffffff;strokeColor=#3A5431;" vertex="1" parent="1">
          <mxGeometry x="-10" y="410" width="120" height="60" as="geometry" />
        </mxCell>
        <mxCell id="6cJSSmzFoF7t9B8q87Jw-2" value="Paradigm" style="rounded=0;whiteSpace=wrap;html=1;fillColor=#6d8764;fontColor=#ffffff;strokeColor=#3A5431;" vertex="1" parent="1">
          <mxGeometry x="110" y="410" width="120" height="60" as="geometry" />
        </mxCell>
        <mxCell id="6cJSSmzFoF7t9B8q87Jw-3" value="Principles" style="rounded=0;whiteSpace=wrap;html=1;" vertex="1" parent="1">
          <mxGeometry x="350" y="650" width="120" height="60" as="geometry" />
        </mxCell>
        <mxCell id="6cJSSmzFoF7t9B8q87Jw-7" value="" style="edgeStyle=orthogonalEdgeStyle;rounded=0;orthogonalLoop=1;jettySize=auto;html=1;" edge="1" parent="1" source="6cJSSmzFoF7t9B8q87Jw-4" target="6cJSSmzFoF7t9B8q87Jw-6">
          <mxGeometry relative="1" as="geometry" />
        </mxCell>
        <mxCell id="6cJSSmzFoF7t9B8q87Jw-4" value="OOPS" style="rounded=0;whiteSpace=wrap;html=1;fillColor=#a0522d;fontColor=#ffffff;strokeColor=#6D1F00;" vertex="1" parent="1">
          <mxGeometry x="280" y="740" width="120" height="60" as="geometry" />
        </mxCell>
        <mxCell id="6cJSSmzFoF7t9B8q87Jw-9" value="" style="edgeStyle=orthogonalEdgeStyle;rounded=0;orthogonalLoop=1;jettySize=auto;html=1;" edge="1" parent="1" source="6cJSSmzFoF7t9B8q87Jw-5" target="6cJSSmzFoF7t9B8q87Jw-8">
          <mxGeometry relative="1" as="geometry" />
        </mxCell>
        <mxCell id="6cJSSmzFoF7t9B8q87Jw-5" value="Functional Programming" style="rounded=0;whiteSpace=wrap;html=1;fillColor=#1ba1e2;strokeColor=#006EAF;fontColor=#ffffff;" vertex="1" parent="1">
          <mxGeometry x="470" y="740" width="120" height="60" as="geometry" />
        </mxCell>
        <mxCell id="6cJSSmzFoF7t9B8q87Jw-6" value="Java" style="whiteSpace=wrap;html=1;fillColor=#a0522d;strokeColor=#6D1F00;fontColor=#ffffff;rounded=0;" vertex="1" parent="1">
          <mxGeometry x="280" y="880" width="120" height="60" as="geometry" />
        </mxCell>
        <mxCell id="6cJSSmzFoF7t9B8q87Jw-18" value="" style="edgeStyle=orthogonalEdgeStyle;rounded=0;orthogonalLoop=1;jettySize=auto;html=1;" edge="1" parent="1" source="6cJSSmzFoF7t9B8q87Jw-8" target="6cJSSmzFoF7t9B8q87Jw-17">
          <mxGeometry relative="1" as="geometry" />
        </mxCell>
        <mxCell id="6cJSSmzFoF7t9B8q87Jw-8" value="C, JavaScript" style="rounded=0;whiteSpace=wrap;html=1;fillColor=#1ba1e2;strokeColor=#006EAF;fontColor=#ffffff;" vertex="1" parent="1">
          <mxGeometry x="470" y="880" width="120" height="60" as="geometry" />
        </mxCell>
        <mxCell id="6cJSSmzFoF7t9B8q87Jw-10" value="object" style="shape=cloud;whiteSpace=wrap;html=1;" vertex="1" parent="1">
          <mxGeometry x="40" y="830" width="120" height="120" as="geometry" />
        </mxCell>
        <mxCell id="6cJSSmzFoF7t9B8q87Jw-11" value="object" style="shape=cloud;whiteSpace=wrap;html=1;" vertex="1" parent="1">
          <mxGeometry x="140" y="750" width="120" height="120" as="geometry" />
        </mxCell>
        <mxCell id="6cJSSmzFoF7t9B8q87Jw-12" value="object" style="shape=cloud;whiteSpace=wrap;html=1;" vertex="1" parent="1">
          <mxGeometry x="120" y="920" width="120" height="120" as="geometry" />
        </mxCell>
        <mxCell id="6cJSSmzFoF7t9B8q87Jw-15" value="" style="edgeStyle=orthogonalEdgeStyle;rounded=0;orthogonalLoop=1;jettySize=auto;html=1;" edge="1" parent="1" source="6cJSSmzFoF7t9B8q87Jw-13" target="6cJSSmzFoF7t9B8q87Jw-14">
          <mxGeometry relative="1" as="geometry" />
        </mxCell>
        <mxCell id="6cJSSmzFoF7t9B8q87Jw-13" value="functions" style="outlineConnect=0;dashed=0;verticalLabelPosition=bottom;verticalAlign=top;align=center;html=1;shape=mxgraph.aws3.lambda_function;fillColor=#F58534;gradientColor=none;" vertex="1" parent="1">
          <mxGeometry x="660" y="790" width="69" height="72" as="geometry" />
        </mxCell>
        <mxCell id="6cJSSmzFoF7t9B8q87Jw-14" value="variables&lt;div&gt;var object = function() {&lt;/div&gt;&lt;div&gt;}&lt;/div&gt;" style="whiteSpace=wrap;html=1;verticalAlign=top;fillColor=#F58534;dashed=0;gradientColor=none;" vertex="1" parent="1">
          <mxGeometry x="783.5" y="796" width="120" height="60" as="geometry" />
        </mxCell>
        <mxCell id="6cJSSmzFoF7t9B8q87Jw-16" value="Payment payment = new Payment();" style="whiteSpace=wrap;html=1;verticalAlign=top;fillColor=#F58534;dashed=0;gradientColor=none;" vertex="1" parent="1">
          <mxGeometry x="-160" y="770" width="120" height="60" as="geometry" />
        </mxCell>
        <mxCell id="6cJSSmzFoF7t9B8q87Jw-17" value="alert(&quot;Hi&quot;);" style="rounded=0;whiteSpace=wrap;html=1;fillColor=#1ba1e2;strokeColor=#006EAF;fontColor=#ffffff;" vertex="1" parent="1">
          <mxGeometry x="470" y="1020" width="120" height="60" as="geometry" />
        </mxCell>
        <mxCell id="6cJSSmzFoF7t9B8q87Jw-19" value="OOPS Heavy weight objects" style="ellipse;whiteSpace=wrap;html=1;aspect=fixed;" vertex="1" parent="1">
          <mxGeometry x="50" y="1100" width="80" height="80" as="geometry" />
        </mxCell>
        <mxCell id="6cJSSmzFoF7t9B8q87Jw-20" value="FP&amp;nbsp;&lt;div&gt;functions&lt;/div&gt;" style="ellipse;whiteSpace=wrap;html=1;aspect=fixed;" vertex="1" parent="1">
          <mxGeometry x="480" y="1100" width="80" height="80" as="geometry" />
        </mxCell>
        <mxCell id="6cJSSmzFoF7t9B8q87Jw-21" value="var mainf = function main()&amp;nbsp;&lt;span style=&quot;background-color: transparent; color: light-dark(rgb(255, 255, 255), rgb(18, 18, 18));&quot;&gt;{&lt;/span&gt;&lt;div&gt;console.log(&quot;fp&quot;);&lt;br&gt;&lt;div&gt;}&lt;/div&gt;&lt;/div&gt;&lt;div&gt;&lt;br&gt;&lt;/div&gt;&lt;div&gt;mainf();&lt;/div&gt;" style="rounded=0;whiteSpace=wrap;html=1;fillColor=#60a917;strokeColor=#2D7600;fontColor=#ffffff;" vertex="1" parent="1">
          <mxGeometry x="450" y="1220" width="160" height="100" as="geometry" />
        </mxCell>
        <mxCell id="6cJSSmzFoF7t9B8q87Jw-22" value="&lt;div style=&quot;background-color:#1e1f22;color:#bcbec4&quot;&gt;&lt;pre style=&quot;font-family:&#39;JetBrains Mono&#39;,monospace;font-size:9.8pt;&quot;&gt;&lt;span style=&quot;color:#cf8e6d;&quot;&gt;public class &lt;/span&gt;Main {&lt;br&gt;    &lt;span style=&quot;color:#cf8e6d;&quot;&gt;public static void &lt;/span&gt;&lt;span style=&quot;color:#56a8f5;&quot;&gt;main&lt;/span&gt;(String[] args) {&lt;br&gt;        System.&lt;span style=&quot;color:#c77dbb;font-style:italic;&quot;&gt;out&lt;/span&gt;.println(&lt;span style=&quot;color:#6aab73;&quot;&gt;&quot;OOPS&quot;&lt;/span&gt;);&lt;br&gt;    }&lt;br&gt;}&lt;/pre&gt;&lt;/div&gt;" style="text;whiteSpace=wrap;html=1;fillColor=#0050ef;fontColor=#ffffff;strokeColor=#001DBC;" vertex="1" parent="1">
          <mxGeometry x="20" y="1220" width="350" height="130" as="geometry" />
        </mxCell>
        <mxCell id="6cJSSmzFoF7t9B8q87Jw-26" value="" style="edgeStyle=orthogonalEdgeStyle;rounded=0;orthogonalLoop=1;jettySize=auto;html=1;" edge="1" parent="1" source="6cJSSmzFoF7t9B8q87Jw-23" target="6cJSSmzFoF7t9B8q87Jw-25">
          <mxGeometry relative="1" as="geometry" />
        </mxCell>
        <mxCell id="6cJSSmzFoF7t9B8q87Jw-23" value="OOPS" style="ellipse;whiteSpace=wrap;html=1;aspect=fixed;" vertex="1" parent="1">
          <mxGeometry x="310" y="1400" width="80" height="80" as="geometry" />
        </mxCell>
        <mxCell id="6cJSSmzFoF7t9B8q87Jw-24" value="FP" style="ellipse;whiteSpace=wrap;html=1;aspect=fixed;" vertex="1" parent="1">
          <mxGeometry x="470" y="1400" width="80" height="80" as="geometry" />
        </mxCell>
        <mxCell id="6cJSSmzFoF7t9B8q87Jw-28" value="" style="edgeStyle=orthogonalEdgeStyle;rounded=0;orthogonalLoop=1;jettySize=auto;html=1;" edge="1" parent="1" source="6cJSSmzFoF7t9B8q87Jw-25" target="6cJSSmzFoF7t9B8q87Jw-27">
          <mxGeometry relative="1" as="geometry" />
        </mxCell>
        <mxCell id="6cJSSmzFoF7t9B8q87Jw-25" value="interfaces" style="rhombus;whiteSpace=wrap;html=1;" vertex="1" parent="1">
          <mxGeometry x="310" y="1560" width="80" height="80" as="geometry" />
        </mxCell>
        <mxCell id="6cJSSmzFoF7t9B8q87Jw-29" style="edgeStyle=orthogonalEdgeStyle;rounded=0;orthogonalLoop=1;jettySize=auto;html=1;entryX=0.5;entryY=1;entryDx=0;entryDy=0;" edge="1" parent="1" source="6cJSSmzFoF7t9B8q87Jw-27" target="6cJSSmzFoF7t9B8q87Jw-24">
          <mxGeometry relative="1" as="geometry" />
        </mxCell>
        <mxCell id="6cJSSmzFoF7t9B8q87Jw-31" value="" style="edgeStyle=orthogonalEdgeStyle;rounded=0;orthogonalLoop=1;jettySize=auto;html=1;" edge="1" parent="1" source="6cJSSmzFoF7t9B8q87Jw-27" target="6cJSSmzFoF7t9B8q87Jw-30">
          <mxGeometry relative="1" as="geometry" />
        </mxCell>
        <mxCell id="6cJSSmzFoF7t9B8q87Jw-27" value="Functional Interfaces" style="whiteSpace=wrap;html=1;" vertex="1" parent="1">
          <mxGeometry x="450" y="1570" width="120" height="60" as="geometry" />
        </mxCell>
        <mxCell id="6cJSSmzFoF7t9B8q87Jw-30" value="intfaces with on abstract method" style="whiteSpace=wrap;html=1;fillColor=#008a00;fontColor=#ffffff;strokeColor=#005700;" vertex="1" parent="1">
          <mxGeometry x="450" y="1710" width="120" height="60" as="geometry" />
        </mxCell>
        <mxCell id="6cJSSmzFoF7t9B8q87Jw-32" value="var mainf = function main()&amp;nbsp;&lt;span style=&quot;background-color: transparent; color: light-dark(rgb(255, 255, 255), rgb(18, 18, 18));&quot;&gt;{&lt;/span&gt;&lt;div&gt;console.log(&quot;fp&quot;);&lt;br&gt;&lt;div&gt;}&lt;/div&gt;&lt;/div&gt;&lt;div&gt;&lt;br&gt;&lt;/div&gt;&lt;div&gt;mainf();&lt;/div&gt;" style="rounded=0;whiteSpace=wrap;html=1;fillColor=#60a917;strokeColor=#2D7600;fontColor=#ffffff;" vertex="1" parent="1">
          <mxGeometry x="614.5" y="1620" width="160" height="100" as="geometry" />
        </mxCell>
        <mxCell id="6cJSSmzFoF7t9B8q87Jw-35" value="" style="edgeStyle=orthogonalEdgeStyle;rounded=0;orthogonalLoop=1;jettySize=auto;html=1;" edge="1" parent="1" source="6cJSSmzFoF7t9B8q87Jw-33" target="6cJSSmzFoF7t9B8q87Jw-34">
          <mxGeometry relative="1" as="geometry" />
        </mxCell>
        <mxCell id="6cJSSmzFoF7t9B8q87Jw-33" value="&lt;div&gt;@FunctionalInterface&lt;/div&gt;inteface FIForMain{&lt;div&gt;public abstract main();&lt;br&gt;&lt;div&gt;&lt;div&gt;}&lt;/div&gt;&lt;div&gt;&lt;br&gt;&lt;/div&gt;&lt;/div&gt;&lt;/div&gt;" style="whiteSpace=wrap;html=1;fillColor=#008a00;fontColor=#ffffff;strokeColor=#005700;" vertex="1" parent="1">
          <mxGeometry x="614.5" y="1750" width="285.5" height="110" as="geometry" />
        </mxCell>
        <mxCell id="6cJSSmzFoF7t9B8q87Jw-34" value="Backward compatible with interfaces which had one method." style="whiteSpace=wrap;html=1;fillColor=#008a00;fontColor=#ffffff;strokeColor=#005700;" vertex="1" parent="1">
          <mxGeometry x="614.5" y="1900" width="285.5" height="110" as="geometry" />
        </mxCell>
        <mxCell id="6cJSSmzFoF7t9B8q87Jw-38" value="" style="edgeStyle=orthogonalEdgeStyle;rounded=0;orthogonalLoop=1;jettySize=auto;html=1;" edge="1" parent="1" source="6cJSSmzFoF7t9B8q87Jw-36" target="6cJSSmzFoF7t9B8q87Jw-37">
          <mxGeometry relative="1" as="geometry" />
        </mxCell>
        <mxCell id="6cJSSmzFoF7t9B8q87Jw-42" value="" style="edgeStyle=orthogonalEdgeStyle;rounded=0;orthogonalLoop=1;jettySize=auto;html=1;" edge="1" parent="1" source="6cJSSmzFoF7t9B8q87Jw-36" target="6cJSSmzFoF7t9B8q87Jw-41">
          <mxGeometry relative="1" as="geometry" />
        </mxCell>
        <mxCell id="6cJSSmzFoF7t9B8q87Jw-36" value="FIForMain functionObject = new FIkForMain() {&lt;div&gt;public abstract void main(){&lt;/div&gt;&lt;div&gt;sout(&quot;oops&quot;);&lt;/div&gt;&lt;div&gt;}&lt;br&gt;&lt;div&gt;}&lt;/div&gt;&lt;/div&gt;" style="whiteSpace=wrap;html=1;fillColor=#008a00;fontColor=#ffffff;strokeColor=#005700;" vertex="1" parent="1">
          <mxGeometry x="820" y="1615" width="285.5" height="110" as="geometry" />
        </mxCell>
        <mxCell id="6cJSSmzFoF7t9B8q87Jw-40" value="" style="edgeStyle=orthogonalEdgeStyle;rounded=0;orthogonalLoop=1;jettySize=auto;html=1;" edge="1" parent="1" source="6cJSSmzFoF7t9B8q87Jw-37" target="6cJSSmzFoF7t9B8q87Jw-39">
          <mxGeometry relative="1" as="geometry" />
        </mxCell>
        <mxCell id="6cJSSmzFoF7t9B8q87Jw-37" value="functionObject = pavmain() { }&lt;div&gt;&lt;br&gt;&lt;/div&gt;" style="ellipse;whiteSpace=wrap;html=1;fillColor=#008a00;strokeColor=#005700;fontColor=#ffffff;" vertex="1" parent="1">
          <mxGeometry x="970" y="1770" width="370" height="80" as="geometry" />
        </mxCell>
        <mxCell id="6cJSSmzFoF7t9B8q87Jw-39" value="functionObject = pavmain() { }&lt;div&gt;&lt;br&gt;&lt;/div&gt;" style="ellipse;whiteSpace=wrap;html=1;fillColor=#008a00;strokeColor=#005700;fontColor=#ffffff;" vertex="1" parent="1">
          <mxGeometry x="970" y="1880" width="370" height="80" as="geometry" />
        </mxCell>
        <mxCell id="6cJSSmzFoF7t9B8q87Jw-41" value="anonymous implementation" style="shape=process;whiteSpace=wrap;html=1;backgroundOutline=1;fillColor=#008a00;strokeColor=#005700;fontColor=#ffffff;" vertex="1" parent="1">
          <mxGeometry x="1150" y="1640" width="120" height="60" as="geometry" />
        </mxCell>
        <mxCell id="6cJSSmzFoF7t9B8q87Jw-46" value="" style="edgeStyle=orthogonalEdgeStyle;rounded=0;orthogonalLoop=1;jettySize=auto;html=1;" edge="1" parent="1" source="6cJSSmzFoF7t9B8q87Jw-43" target="6cJSSmzFoF7t9B8q87Jw-45">
          <mxGeometry relative="1" as="geometry" />
        </mxCell>
        <mxCell id="6cJSSmzFoF7t9B8q87Jw-43" value="Expression : Lambda Expression&lt;br&gt;functionObject&amp;nbsp; = () -&amp;gt; sout(&quot;oops&quot;)&amp;nbsp;" style="ellipse;whiteSpace=wrap;html=1;fillColor=#008a00;strokeColor=#005700;fontColor=#ffffff;" vertex="1" parent="1">
          <mxGeometry x="970" y="2030" width="370" height="80" as="geometry" />
        </mxCell>
        <mxCell id="6cJSSmzFoF7t9B8q87Jw-44" value="Not anonymous innerclass which we used with the diamond operator earlier" style="shape=process;whiteSpace=wrap;html=1;backgroundOutline=1;fillColor=#a0522d;strokeColor=#6D1F00;fontColor=#ffffff;" vertex="1" parent="1">
          <mxGeometry x="1240" y="1540" width="150" height="80" as="geometry" />
        </mxCell>
        <mxCell id="6cJSSmzFoF7t9B8q87Jw-45" value="Stream API extensively uses Lambdas" style="ellipse;whiteSpace=wrap;html=1;fillColor=#008a00;strokeColor=#005700;fontColor=#ffffff;" vertex="1" parent="1">
          <mxGeometry x="1115" y="2190" width="80" height="80" as="geometry" />
        </mxCell>
        <UserObject label="&lt;h1 title=&quot;Package&quot; class=&quot;title&quot; style=&quot;font-size: 20px; color: rgb(44, 69, 87); margin: 10px 0px; font-family: &amp;quot;DejaVu Sans&amp;quot;, Arial, Helvetica, sans-serif; font-style: normal; font-variant-ligatures: normal; font-variant-caps: normal; letter-spacing: normal; orphans: 2; text-align: start; text-indent: 0px; text-transform: none; widows: 2; word-spacing: 0px; -webkit-text-stroke-width: 0px; white-space: normal; background-color: rgb(255, 255, 255); text-decoration-thickness: initial; text-decoration-style: initial; text-decoration-color: initial;&quot;&gt;&amp;nbsp;java.util.function&lt;/h1&gt;" link="&lt;h1 title=&quot;Package&quot; class=&quot;title&quot; style=&quot;font-size: 20px; color: rgb(44, 69, 87); margin: 10px 0px; font-family: &amp;quot;DejaVu Sans&amp;quot;, Arial, Helvetica, sans-serif; font-style: normal; font-variant-ligatures: normal; font-variant-caps: normal; letter-spacing: normal; orphans: 2; text-align: start; text-indent: 0px; text-transform: none; widows: 2; word-spacing: 0px; -webkit-text-stroke-width: 0px; white-space: normal; background-color: rgb(255, 255, 255); text-decoration-thickness: initial; text-decoration-style: initial; text-decoration-color: initial;&quot;&gt;&amp;nbsp;java.util.function&lt;/h1&gt;" id="6cJSSmzFoF7t9B8q87Jw-47">
          <mxCell style="text;whiteSpace=wrap;html=1;" vertex="1" parent="1">
            <mxGeometry x="430" y="1820" width="200" height="70" as="geometry" />
          </mxCell>
        </UserObject>
        <mxCell id="9vNzCgMDVzgK6lLMVGsD-1" value="Insight" style="rounded=0;whiteSpace=wrap;html=1;fillColor=#008a00;fontColor=#ffffff;strokeColor=#005700;" vertex="1" parent="1">
          <mxGeometry x="110" y="530" width="120" height="60" as="geometry" />
        </mxCell>
        <mxCell id="9vNzCgMDVzgK6lLMVGsD-2" value="Learn to Learn Framework" style="rounded=0;whiteSpace=wrap;html=1;fillColor=#008a00;fontColor=#ffffff;strokeColor=#005700;" vertex="1" parent="1">
          <mxGeometry x="110" y="620" width="120" height="60" as="geometry" />
        </mxCell>
      </root>
    </mxGraphModel>
  </diagram>
  <diagram id="F4DoPFH3YsymMdyTXWiu" name="Demo">
    <mxGraphModel dx="786" dy="562" grid="1" gridSize="10" guides="1" tooltips="1" connect="1" arrows="1" fold="1" page="1" pageScale="1" pageWidth="850" pageHeight="1100" math="0" shadow="0">
      <root>
        <mxCell id="0" />
        <mxCell id="1" parent="0" />
        <mxCell id="uzIxB_AXCy2PeI7c9Qlu-2" value="CREATE THE TRANSACTION PROCESSOR" style="rounded=0;whiteSpace=wrap;html=1;fontSize=19;" parent="1" vertex="1">
          <mxGeometry x="100" y="80" width="160" height="90" as="geometry" />
        </mxCell>
        <mxCell id="uzIxB_AXCy2PeI7c9Qlu-3" value="CREATE DOMAIN CLASS TRANSACTION" style="rounded=0;whiteSpace=wrap;html=1;fontSize=19;" parent="1" vertex="1">
          <mxGeometry x="100" y="220" width="160" height="90" as="geometry" />
        </mxCell>
        <mxCell id="uzIxB_AXCy2PeI7c9Qlu-4" value="PERFORM A LIST OF TRANSACTIONS OF USD &amp;amp; EUR" style="rounded=0;whiteSpace=wrap;html=1;fontSize=19;" parent="1" vertex="1">
          <mxGeometry x="100" y="360" width="160" height="90" as="geometry" />
        </mxCell>
        <mxCell id="wSxFUv9u-JmrOEF9yLLa-1" value="Collection (Movie)" style="whiteSpace=wrap;html=1;aspect=fixed;" vertex="1" parent="1">
          <mxGeometry x="540" y="100" width="80" height="80" as="geometry" />
        </mxCell>
        <mxCell id="wSxFUv9u-JmrOEF9yLLa-5" style="edgeStyle=orthogonalEdgeStyle;rounded=0;orthogonalLoop=1;jettySize=auto;html=1;entryX=0.75;entryY=0;entryDx=0;entryDy=0;" edge="1" parent="1" source="wSxFUv9u-JmrOEF9yLLa-2" target="wSxFUv9u-JmrOEF9yLLa-4">
          <mxGeometry relative="1" as="geometry" />
        </mxCell>
        <mxCell id="wSxFUv9u-JmrOEF9yLLa-2" value="Element 1 (Frame1)" style="rounded=0;whiteSpace=wrap;html=1;fillColor=#008a00;fontColor=#ffffff;strokeColor=#005700;" vertex="1" parent="1">
          <mxGeometry x="620" y="107.5" width="120" height="35" as="geometry" />
        </mxCell>
        <mxCell id="wSxFUv9u-JmrOEF9yLLa-6" style="edgeStyle=orthogonalEdgeStyle;rounded=0;orthogonalLoop=1;jettySize=auto;html=1;entryX=0.5;entryY=0;entryDx=0;entryDy=0;" edge="1" parent="1" source="wSxFUv9u-JmrOEF9yLLa-3" target="wSxFUv9u-JmrOEF9yLLa-4">
          <mxGeometry relative="1" as="geometry" />
        </mxCell>
        <mxCell id="wSxFUv9u-JmrOEF9yLLa-3" value="Element 2 (Frame2)" style="rounded=0;whiteSpace=wrap;html=1;fillColor=#008a00;fontColor=#ffffff;strokeColor=#005700;" vertex="1" parent="1">
          <mxGeometry x="620" y="145" width="120" height="35" as="geometry" />
        </mxCell>
        <mxCell id="wSxFUv9u-JmrOEF9yLLa-4" value="Television / Mobile" style="rounded=0;whiteSpace=wrap;html=1;fillColor=#008a00;fontColor=#ffffff;strokeColor=#005700;" vertex="1" parent="1">
          <mxGeometry x="880" y="200" width="120" height="60" as="geometry" />
        </mxCell>
        <mxCell id="wSxFUv9u-JmrOEF9yLLa-7" value="Processing the Stream Map, Filter, Reduction....." style="rounded=1;whiteSpace=wrap;html=1;fillColor=#fa6800;fontColor=#000000;strokeColor=#C73500;" vertex="1" parent="1">
          <mxGeometry x="800" y="95" width="120" height="60" as="geometry" />
        </mxCell>
      </root>
    </mxGraphModel>
  </diagram>
</mxfile>
